<svg xmlns="http://www.w3.org/2000/svg" xmlns:xlink="http://www.w3.org/1999/xlink" version="1.1" x="0px" y="0px" viewBox="0 0 100 125" enable-background="new 0 0 100 100" xml:space="preserve"><g><path d="M49.999,47.08c-11.145,0-20.188,11.061-20.188,24.689c0,4.551,3.011,8.23,6.73,8.23h26.916c3.72,0,6.73-3.68,6.73-8.23   C70.188,58.141,61.146,47.08,49.999,47.08z"/><path d="M73.699,20.826L55.77,8.96c-0.231-0.155-0.519-0.21-0.793-0.151l-19.859,4.193c-0.4,0.084-0.715,0.396-0.805,0.798   l-0.119,0.537c-0.094,0.423,0.082,0.86,0.445,1.1l8.314,5.503l-0.339,1.533c-3.004,2.252-4.957,5.83-4.957,9.871   c0,6.816,5.529,12.346,12.342,12.346c6.814,0,12.344-5.529,12.344-12.346c0-1.464-0.269-2.863-0.737-4.166   c0.185-0.236,0.312-0.488,0.371-0.755l0.414-1.876l5.364-1.133c0.667,0.943,1.103,2.088,1.212,3.547   c-0.545,0.282-0.922,0.844-0.922,1.5c0,0.551,0.267,1.034,0.674,1.344c-0.461,2.352-1.076,6.673,0.15,8.589   c0.361,0.563,0.873,0.924,1.479,1.039c0.048,0.009,0.096,0.014,0.144,0.014c0.356,0,0.674-0.253,0.744-0.617   c0.078-0.411-0.192-0.809-0.604-0.887c-0.133-0.025-0.308-0.09-0.485-0.367c-0.433-0.676-0.534-2.01-0.454-3.516   c0.374,1.168,0.949,2.219,1.836,2.803c0.352,0.232,0.821,0.133,1.051-0.217s0.133-0.82-0.217-1.051   c-1.192-0.785-1.695-3.477-1.803-5.66c0.52-0.289,0.875-0.837,0.875-1.474c0-0.667-0.389-1.238-0.949-1.514   c-0.1-1.555-0.504-2.82-1.128-3.871l3.861-0.816c0.401-0.084,0.716-0.396,0.805-0.797l0.119-0.537   C74.237,21.503,74.061,21.064,73.699,20.826z M53.145,16.721c0.017-0.137,0.156-0.249,0.415-0.304   c0.516-0.108,1.313,0.054,1.78,0.362c0.233,0.154,0.34,0.316,0.322,0.454l-0.076,0.376c-0.018,0.137-0.156,0.248-0.414,0.303   c-0.518,0.109-1.313-0.053-1.78-0.361c-0.233-0.155-0.34-0.317-0.323-0.454L53.145,16.721z"/></g></svg>